<?xml version="1.0" encoding="UTF-8" standalone="no"?>
<!DOCTYPE svg PUBLIC "-//W3C//DTD SVG 1.1//EN"
 "http://www.w3.org/Graphics/SVG/1.1/DTD/svg11.dtd">
<!-- Generated by graphviz version 2.43.0 (0)
 -->
<!-- Title: %3 Pages: 1 -->
<svg width="4046pt" height="548pt"
 viewBox="0.00 0.00 4046.32 548.00" xmlns="http://www.w3.org/2000/svg" xmlns:xlink="http://www.w3.org/1999/xlink">
<g id="graph0" class="graph" transform="scale(1 1) rotate(0) translate(4 544)">
<title>%3</title>
<polygon fill="white" stroke="transparent" points="-4,4 -4,-544 4042.32,-544 4042.32,4 -4,4"/>
<!-- [root] aws_acm_certificate.main (expand) -->
<g id="node1" class="node">
<title>[root] aws_acm_certificate.main (expand)</title>
<polygon fill="none" stroke="black" points="2639,-324 2440,-324 2440,-288 2639,-288 2639,-324"/>
<text text-anchor="middle" x="2539.5" y="-302.3" font-family="Times,serif" font-size="14.00">aws_acm_certificate.main</text>
</g>
<!-- [root] provider[&quot;registry.terraform.io/hashicorp/aws&quot;].us_east_1 -->
<g id="node29" class="node">
<title>[root] provider[&quot;registry.terraform.io/hashicorp/aws&quot;].us_east_1</title>
<polygon fill="none" stroke="black" points="2539.5,-252 2146.2,-234 2539.5,-216 2932.8,-234 2539.5,-252"/>
<text text-anchor="middle" x="2539.5" y="-230.3" font-family="Times,serif" font-size="14.00">provider[&quot;registry.terraform.io/hashicorp/aws&quot;].us_east_1</text>
</g>
<!-- [root] aws_acm_certificate.main (expand)&#45;&gt;[root] provider[&quot;registry.terraform.io/hashicorp/aws&quot;].us_east_1 -->
<g id="edge2" class="edge">
<title>[root] aws_acm_certificate.main (expand)&#45;&gt;[root] provider[&quot;registry.terraform.io/hashicorp/aws&quot;].us_east_1</title>
<path fill="none" stroke="black" d="M2539.5,-287.7C2539.5,-279.98 2539.5,-270.71 2539.5,-262.11"/>
<polygon fill="black" stroke="black" points="2543,-262.1 2539.5,-252.1 2536,-262.1 2543,-262.1"/>
</g>
<!-- [root] local.main_domain (expand) -->
<g id="node33" class="node">
<title>[root] local.main_domain (expand)</title>
<ellipse fill="none" stroke="black" cx="3119.5" cy="-234" rx="168.97" ry="18"/>
<text text-anchor="middle" x="3119.5" y="-230.3" font-family="Times,serif" font-size="14.00">[root] local.main_domain (expand)</text>
</g>
<!-- [root] aws_acm_certificate.main (expand)&#45;&gt;[root] local.main_domain (expand) -->
<g id="edge1" class="edge">
<title>[root] aws_acm_certificate.main (expand)&#45;&gt;[root] local.main_domain (expand)</title>
<path fill="none" stroke="black" d="M2639.21,-292.97C2739.92,-280.81 2895.47,-262.04 3002.09,-249.17"/>
<polygon fill="black" stroke="black" points="3002.75,-252.62 3012.26,-247.94 3001.91,-245.67 3002.75,-252.62"/>
</g>
<!-- [root] aws_cloudfront_distribution.app (expand) -->
<g id="node2" class="node">
<title>[root] aws_cloudfront_distribution.app (expand)</title>
<polygon fill="none" stroke="black" points="2149.5,-396 1903.5,-396 1903.5,-360 2149.5,-360 2149.5,-396"/>
<text text-anchor="middle" x="2026.5" y="-374.3" font-family="Times,serif" font-size="14.00">aws_cloudfront_distribution.app</text>
</g>
<!-- [root] aws_cloudfront_distribution.app (expand)&#45;&gt;[root] aws_acm_certificate.main (expand) -->
<g id="edge3" class="edge">
<title>[root] aws_cloudfront_distribution.app (expand)&#45;&gt;[root] aws_acm_certificate.main (expand)</title>
<path fill="none" stroke="black" d="M2149.7,-360.19C2234.93,-348.56 2347.36,-333.22 2429.56,-322"/>
<polygon fill="black" stroke="black" points="2430.25,-325.44 2439.68,-320.62 2429.3,-318.5 2430.25,-325.44"/>
</g>
<!-- [root] aws_lb.app (expand) -->
<g id="node9" class="node">
<title>[root] aws_lb.app (expand)</title>
<polygon fill="none" stroke="black" points="1483,-324 1388,-324 1388,-288 1483,-288 1483,-324"/>
<text text-anchor="middle" x="1435.5" y="-302.3" font-family="Times,serif" font-size="14.00">aws_lb.app</text>
</g>
<!-- [root] aws_cloudfront_distribution.app (expand)&#45;&gt;[root] aws_lb.app (expand) -->
<g id="edge4" class="edge">
<title>[root] aws_cloudfront_distribution.app (expand)&#45;&gt;[root] aws_lb.app (expand)</title>
<path fill="none" stroke="black" d="M1903.39,-367.62C1775.41,-357.38 1582.55,-340.48 1493.17,-324.08"/>
<polygon fill="black" stroke="black" points="1493.78,-320.63 1483.3,-322.19 1492.47,-327.51 1493.78,-320.63"/>
</g>
<!-- [root] aws_wafv2_web_acl.app (expand) -->
<g id="node21" class="node">
<title>[root] aws_wafv2_web_acl.app (expand)</title>
<polygon fill="none" stroke="black" points="2359.5,-324 2171.5,-324 2171.5,-288 2359.5,-288 2359.5,-324"/>
<text text-anchor="middle" x="2265.5" y="-302.3" font-family="Times,serif" font-size="14.00">aws_wafv2_web_acl.app</text>
</g>
<!-- [root] aws_cloudfront_distribution.app (expand)&#45;&gt;[root] aws_wafv2_web_acl.app (expand) -->
<g id="edge5" class="edge">
<title>[root] aws_cloudfront_distribution.app (expand)&#45;&gt;[root] aws_wafv2_web_acl.app (expand)</title>
<path fill="none" stroke="black" d="M2084.66,-359.97C2118.63,-350.01 2161.68,-337.41 2197.26,-326.99"/>
<polygon fill="black" stroke="black" points="2198.47,-330.28 2207.08,-324.11 2196.5,-323.56 2198.47,-330.28"/>
</g>
<!-- [root] local.origin_id (expand) -->
<g id="node34" class="node">
<title>[root] local.origin_id (expand)</title>
<ellipse fill="none" stroke="black" cx="1942.5" cy="-90" rx="147.57" ry="18"/>
<text text-anchor="middle" x="1942.5" y="-86.3" font-family="Times,serif" font-size="14.00">[root] local.origin_id (expand)</text>
</g>
<!-- [root] aws_cloudfront_distribution.app (expand)&#45;&gt;[root] local.origin_id (expand) -->
<g id="edge6" class="edge">
<title>[root] aws_cloudfront_distribution.app (expand)&#45;&gt;[root] local.origin_id (expand)</title>
<path fill="none" stroke="black" d="M2041.68,-359.7C2049.23,-349.94 2057.57,-337.1 2061.5,-324 2066.1,-308.68 2065.79,-303.41 2061.5,-288 2042.44,-219.58 1992.48,-151.2 1963.72,-115.79"/>
<polygon fill="black" stroke="black" points="1966.29,-113.41 1957.23,-107.92 1960.89,-117.87 1966.29,-113.41"/>
</g>
<!-- [root] aws_db_instance.main (expand) -->
<g id="node3" class="node">
<title>[root] aws_db_instance.main (expand)</title>
<polygon fill="none" stroke="black" points="500.5,-396 324.5,-396 324.5,-360 500.5,-360 500.5,-396"/>
<text text-anchor="middle" x="412.5" y="-374.3" font-family="Times,serif" font-size="14.00">aws_db_instance.main</text>
</g>
<!-- [root] aws_db_subnet_group.main (expand) -->
<g id="node4" class="node">
<title>[root] aws_db_subnet_group.main (expand)</title>
<polygon fill="none" stroke="black" points="897,-324 684,-324 684,-288 897,-288 897,-324"/>
<text text-anchor="middle" x="790.5" y="-302.3" font-family="Times,serif" font-size="14.00">aws_db_subnet_group.main</text>
</g>
<!-- [root] aws_db_instance.main (expand)&#45;&gt;[root] aws_db_subnet_group.main (expand) -->
<g id="edge7" class="edge">
<title>[root] aws_db_instance.main (expand)&#45;&gt;[root] aws_db_subnet_group.main (expand)</title>
<path fill="none" stroke="black" d="M500.65,-360.68C556.84,-350.27 629.86,-336.75 688.55,-325.88"/>
<polygon fill="black" stroke="black" points="689.39,-329.28 698.59,-324.02 688.12,-322.4 689.39,-329.28"/>
</g>
<!-- [root] aws_security_group.rds (expand) -->
<g id="node18" class="node">
<title>[root] aws_security_group.rds (expand)</title>
<polygon fill="none" stroke="black" points="505,-324 320,-324 320,-288 505,-288 505,-324"/>
<text text-anchor="middle" x="412.5" y="-302.3" font-family="Times,serif" font-size="14.00">aws_security_group.rds</text>
</g>
<!-- [root] aws_db_instance.main (expand)&#45;&gt;[root] aws_security_group.rds (expand) -->
<g id="edge8" class="edge">
<title>[root] aws_db_instance.main (expand)&#45;&gt;[root] aws_security_group.rds (expand)</title>
<path fill="none" stroke="black" d="M412.5,-359.7C412.5,-351.98 412.5,-342.71 412.5,-334.11"/>
<polygon fill="black" stroke="black" points="416,-334.1 412.5,-324.1 409,-334.1 416,-334.1"/>
</g>
<!-- [root] var.rds_password -->
<g id="node31" class="node">
<title>[root] var.rds_password</title>
<polygon fill="none" stroke="black" points="296,-324 161,-324 161,-288 302,-288 302,-318 296,-324"/>
<polyline fill="none" stroke="black" points="296,-324 296,-318 "/>
<polyline fill="none" stroke="black" points="302,-318 296,-318 "/>
<text text-anchor="middle" x="231.5" y="-302.3" font-family="Times,serif" font-size="14.00">var.rds_password</text>
</g>
<!-- [root] aws_db_instance.main (expand)&#45;&gt;[root] var.rds_password -->
<g id="edge9" class="edge">
<title>[root] aws_db_instance.main (expand)&#45;&gt;[root] var.rds_password</title>
<path fill="none" stroke="black" d="M368.22,-359.88C343.15,-350.18 311.6,-337.98 285.13,-327.74"/>
<polygon fill="black" stroke="black" points="286.22,-324.41 275.63,-324.07 283.7,-330.94 286.22,-324.41"/>
</g>
<!-- [root] var.rds_username -->
<g id="node32" class="node">
<title>[root] var.rds_username</title>
<polygon fill="none" stroke="black" points="137,-324 0,-324 0,-288 143,-288 143,-318 137,-324"/>
<polyline fill="none" stroke="black" points="137,-324 137,-318 "/>
<polyline fill="none" stroke="black" points="143,-318 137,-318 "/>
<text text-anchor="middle" x="71.5" y="-302.3" font-family="Times,serif" font-size="14.00">var.rds_username</text>
</g>
<!-- [root] aws_db_instance.main (expand)&#45;&gt;[root] var.rds_username -->
<g id="edge10" class="edge">
<title>[root] aws_db_instance.main (expand)&#45;&gt;[root] var.rds_username</title>
<path fill="none" stroke="black" d="M327.53,-359.95C278.97,-350.16 216.67,-337.51 152.86,-324.27"/>
<polygon fill="black" stroke="black" points="153.53,-320.84 143.02,-322.23 152.1,-327.69 153.53,-320.84"/>
</g>
<!-- [root] aws_subnet.main (expand) -->
<g id="node19" class="node">
<title>[root] aws_subnet.main (expand)</title>
<polygon fill="none" stroke="black" points="1505.5,-252 1365.5,-252 1365.5,-216 1505.5,-216 1505.5,-252"/>
<text text-anchor="middle" x="1435.5" y="-230.3" font-family="Times,serif" font-size="14.00">aws_subnet.main</text>
</g>
<!-- [root] aws_db_subnet_group.main (expand)&#45;&gt;[root] aws_subnet.main (expand) -->
<g id="edge11" class="edge">
<title>[root] aws_db_subnet_group.main (expand)&#45;&gt;[root] aws_subnet.main (expand)</title>
<path fill="none" stroke="black" d="M897.3,-289.04C900.06,-288.68 902.8,-288.33 905.5,-288 1064.48,-268.31 1250.99,-251 1354.97,-241.86"/>
<polygon fill="black" stroke="black" points="1355.43,-245.34 1365.08,-240.98 1354.82,-238.36 1355.43,-245.34"/>
</g>
<!-- [root] aws_elasticache_cluster.main (expand) -->
<g id="node5" class="node">
<title>[root] aws_elasticache_cluster.main (expand)</title>
<polygon fill="none" stroke="black" points="1751,-396 1526,-396 1526,-360 1751,-360 1751,-396"/>
<text text-anchor="middle" x="1638.5" y="-374.3" font-family="Times,serif" font-size="14.00">aws_elasticache_cluster.main</text>
</g>
<!-- [root] aws_elasticache_subnet_group.main (expand) -->
<g id="node6" class="node">
<title>[root] aws_elasticache_subnet_group.main (expand)</title>
<polygon fill="none" stroke="black" points="1776,-324 1501,-324 1501,-288 1776,-288 1776,-324"/>
<text text-anchor="middle" x="1638.5" y="-302.3" font-family="Times,serif" font-size="14.00">aws_elasticache_subnet_group.main</text>
</g>
<!-- [root] aws_elasticache_cluster.main (expand)&#45;&gt;[root] aws_elasticache_subnet_group.main (expand) -->
<g id="edge12" class="edge">
<title>[root] aws_elasticache_cluster.main (expand)&#45;&gt;[root] aws_elasticache_subnet_group.main (expand)</title>
<path fill="none" stroke="black" d="M1638.5,-359.7C1638.5,-351.98 1638.5,-342.71 1638.5,-334.11"/>
<polygon fill="black" stroke="black" points="1642,-334.1 1638.5,-324.1 1635,-334.1 1642,-334.1"/>
</g>
<!-- [root] aws_security_group.elasticache (expand) -->
<g id="node17" class="node">
<title>[root] aws_security_group.elasticache (expand)</title>
<polygon fill="none" stroke="black" points="1369.5,-324 1127.5,-324 1127.5,-288 1369.5,-288 1369.5,-324"/>
<text text-anchor="middle" x="1248.5" y="-302.3" font-family="Times,serif" font-size="14.00">aws_security_group.elasticache</text>
</g>
<!-- [root] aws_elasticache_cluster.main (expand)&#45;&gt;[root] aws_security_group.elasticache (expand) -->
<g id="edge13" class="edge">
<title>[root] aws_elasticache_cluster.main (expand)&#45;&gt;[root] aws_security_group.elasticache (expand)</title>
<path fill="none" stroke="black" d="M1543.59,-359.97C1486.15,-349.66 1412.81,-336.49 1353.62,-325.87"/>
<polygon fill="black" stroke="black" points="1353.95,-322.37 1343.49,-324.05 1352.72,-329.26 1353.95,-322.37"/>
</g>
<!-- [root] aws_elasticache_subnet_group.main (expand)&#45;&gt;[root] aws_subnet.main (expand) -->
<g id="edge14" class="edge">
<title>[root] aws_elasticache_subnet_group.main (expand)&#45;&gt;[root] aws_subnet.main (expand)</title>
<path fill="none" stroke="black" d="M1589.1,-287.97C1560.61,-278.14 1524.61,-265.73 1494.63,-255.39"/>
<polygon fill="black" stroke="black" points="1495.72,-252.06 1485.12,-252.11 1493.43,-258.68 1495.72,-252.06"/>
</g>
<!-- [root] aws_instance.app (expand) -->
<g id="node7" class="node">
<title>[root] aws_instance.app (expand)</title>
<polygon fill="none" stroke="black" points="665.5,-324 523.5,-324 523.5,-288 665.5,-288 665.5,-324"/>
<text text-anchor="middle" x="594.5" y="-302.3" font-family="Times,serif" font-size="14.00">aws_instance.app</text>
</g>
<!-- [root] aws_security_group.app (expand) -->
<g id="node16" class="node">
<title>[root] aws_security_group.app (expand)</title>
<polygon fill="none" stroke="black" points="1118.5,-252 930.5,-252 930.5,-216 1118.5,-216 1118.5,-252"/>
<text text-anchor="middle" x="1024.5" y="-230.3" font-family="Times,serif" font-size="14.00">aws_security_group.app</text>
</g>
<!-- [root] aws_instance.app (expand)&#45;&gt;[root] aws_security_group.app (expand) -->
<g id="edge15" class="edge">
<title>[root] aws_instance.app (expand)&#45;&gt;[root] aws_security_group.app (expand)</title>
<path fill="none" stroke="black" d="M665.56,-289.67C668.58,-289.09 671.57,-288.53 674.5,-288 756.77,-273.04 850.45,-259.01 920.18,-249.15"/>
<polygon fill="black" stroke="black" points="920.88,-252.59 930.29,-247.73 919.9,-245.66 920.88,-252.59"/>
</g>
<!-- [root] aws_instance.app (expand)&#45;&gt;[root] aws_subnet.main (expand) -->
<g id="edge16" class="edge">
<title>[root] aws_instance.app (expand)&#45;&gt;[root] aws_subnet.main (expand)</title>
<path fill="none" stroke="black" d="M665.51,-289.37C668.54,-288.88 671.55,-288.41 674.5,-288 804.15,-269.8 1187.45,-248.1 1355.27,-239.16"/>
<polygon fill="black" stroke="black" points="1355.48,-242.66 1365.28,-238.63 1355.11,-235.66 1355.48,-242.66"/>
</g>
<!-- [root] data.aws_ami.ubuntu (expand) -->
<g id="node24" class="node">
<title>[root] data.aws_ami.ubuntu (expand)</title>
<polygon fill="none" stroke="black" points="841,-108 672,-108 672,-72 841,-72 841,-108"/>
<text text-anchor="middle" x="756.5" y="-86.3" font-family="Times,serif" font-size="14.00">data.aws_ami.ubuntu</text>
</g>
<!-- [root] aws_instance.app (expand)&#45;&gt;[root] data.aws_ami.ubuntu (expand) -->
<g id="edge17" class="edge">
<title>[root] aws_instance.app (expand)&#45;&gt;[root] data.aws_ami.ubuntu (expand)</title>
<path fill="none" stroke="black" d="M607.48,-287.85C635.92,-250.28 703.83,-160.58 737.25,-116.43"/>
<polygon fill="black" stroke="black" points="740.21,-118.32 743.45,-108.23 734.63,-114.09 740.21,-118.32"/>
</g>
<!-- [root] aws_internet_gateway.main (expand) -->
<g id="node8" class="node">
<title>[root] aws_internet_gateway.main (expand)</title>
<polygon fill="none" stroke="black" points="1842,-180 1629,-180 1629,-144 1842,-144 1842,-180"/>
<text text-anchor="middle" x="1735.5" y="-158.3" font-family="Times,serif" font-size="14.00">aws_internet_gateway.main</text>
</g>
<!-- [root] aws_vpc.main (expand) -->
<g id="node20" class="node">
<title>[root] aws_vpc.main (expand)</title>
<polygon fill="none" stroke="black" points="1353.5,-108 1237.5,-108 1237.5,-72 1353.5,-72 1353.5,-108"/>
<text text-anchor="middle" x="1295.5" y="-86.3" font-family="Times,serif" font-size="14.00">aws_vpc.main</text>
</g>
<!-- [root] aws_internet_gateway.main (expand)&#45;&gt;[root] aws_vpc.main (expand) -->
<g id="edge18" class="edge">
<title>[root] aws_internet_gateway.main (expand)&#45;&gt;[root] aws_vpc.main (expand)</title>
<path fill="none" stroke="black" d="M1628.99,-144.05C1546.45,-130.92 1434.56,-113.12 1363.69,-101.85"/>
<polygon fill="black" stroke="black" points="1363.96,-98.35 1353.53,-100.23 1362.86,-105.26 1363.96,-98.35"/>
</g>
<!-- [root] aws_security_group.alb (expand) -->
<g id="node15" class="node">
<title>[root] aws_security_group.alb (expand)</title>
<polygon fill="none" stroke="black" points="1146.5,-180 962.5,-180 962.5,-144 1146.5,-144 1146.5,-180"/>
<text text-anchor="middle" x="1054.5" y="-158.3" font-family="Times,serif" font-size="14.00">aws_security_group.alb</text>
</g>
<!-- [root] aws_lb.app (expand)&#45;&gt;[root] aws_security_group.alb (expand) -->
<g id="edge19" class="edge">
<title>[root] aws_lb.app (expand)&#45;&gt;[root] aws_security_group.alb (expand)</title>
<path fill="none" stroke="black" d="M1389.54,-287.87C1319.36,-261.72 1185.7,-211.9 1110.14,-183.74"/>
<polygon fill="black" stroke="black" points="1110.92,-180.29 1100.32,-180.08 1108.47,-186.85 1110.92,-180.29"/>
</g>
<!-- [root] aws_lb.app (expand)&#45;&gt;[root] aws_subnet.main (expand) -->
<g id="edge20" class="edge">
<title>[root] aws_lb.app (expand)&#45;&gt;[root] aws_subnet.main (expand)</title>
<path fill="none" stroke="black" d="M1435.5,-287.7C1435.5,-279.98 1435.5,-270.71 1435.5,-262.11"/>
<polygon fill="black" stroke="black" points="1439,-262.1 1435.5,-252.1 1432,-262.1 1439,-262.1"/>
</g>
<!-- [root] aws_lb_listener.app (expand) -->
<g id="node10" class="node">
<title>[root] aws_lb_listener.app (expand)</title>
<polygon fill="none" stroke="black" points="1508,-396 1353,-396 1353,-360 1508,-360 1508,-396"/>
<text text-anchor="middle" x="1430.5" y="-374.3" font-family="Times,serif" font-size="14.00">aws_lb_listener.app</text>
</g>
<!-- [root] aws_lb_listener.app (expand)&#45;&gt;[root] aws_lb.app (expand) -->
<g id="edge21" class="edge">
<title>[root] aws_lb_listener.app (expand)&#45;&gt;[root] aws_lb.app (expand)</title>
<path fill="none" stroke="black" d="M1431.74,-359.7C1432.29,-351.98 1432.95,-342.71 1433.56,-334.11"/>
<polygon fill="black" stroke="black" points="1437.06,-334.33 1434.28,-324.1 1430.07,-333.83 1437.06,-334.33"/>
</g>
<!-- [root] aws_lb_target_group.app (expand) -->
<g id="node11" class="node">
<title>[root] aws_lb_target_group.app (expand)</title>
<polygon fill="none" stroke="black" points="1110,-324 915,-324 915,-288 1110,-288 1110,-324"/>
<text text-anchor="middle" x="1012.5" y="-302.3" font-family="Times,serif" font-size="14.00">aws_lb_target_group.app</text>
</g>
<!-- [root] aws_lb_listener.app (expand)&#45;&gt;[root] aws_lb_target_group.app (expand) -->
<g id="edge22" class="edge">
<title>[root] aws_lb_listener.app (expand)&#45;&gt;[root] aws_lb_target_group.app (expand)</title>
<path fill="none" stroke="black" d="M1352.86,-364C1287.46,-353.05 1193.22,-337.26 1120.47,-325.08"/>
<polygon fill="black" stroke="black" points="1120.8,-321.59 1110.36,-323.39 1119.64,-328.49 1120.8,-321.59"/>
</g>
<!-- [root] aws_lb_target_group.app (expand)&#45;&gt;[root] aws_vpc.main (expand) -->
<g id="edge23" class="edge">
<title>[root] aws_lb_target_group.app (expand)&#45;&gt;[root] aws_vpc.main (expand)</title>
<path fill="none" stroke="black" d="M1058.59,-287.9C1080.39,-278.8 1106.24,-266.48 1127.5,-252 1186.69,-211.68 1244.47,-149.99 1274.41,-115.87"/>
<polygon fill="black" stroke="black" points="1277.14,-118.06 1281.06,-108.22 1271.85,-113.47 1277.14,-118.06"/>
</g>
<!-- [root] aws_lb_target_group_attachment.app (expand) -->
<g id="node12" class="node">
<title>[root] aws_lb_target_group_attachment.app (expand)</title>
<polygon fill="none" stroke="black" points="1154.5,-396 870.5,-396 870.5,-360 1154.5,-360 1154.5,-396"/>
<text text-anchor="middle" x="1012.5" y="-374.3" font-family="Times,serif" font-size="14.00">aws_lb_target_group_attachment.app</text>
</g>
<!-- [root] aws_lb_target_group_attachment.app (expand)&#45;&gt;[root] aws_instance.app (expand) -->
<g id="edge24" class="edge">
<title>[root] aws_lb_target_group_attachment.app (expand)&#45;&gt;[root] aws_instance.app (expand)</title>
<path fill="none" stroke="black" d="M893.74,-359.98C831.49,-350.67 753.75,-338.44 675.59,-324.15"/>
<polygon fill="black" stroke="black" points="676.03,-320.67 665.56,-322.31 674.76,-327.56 676.03,-320.67"/>
</g>
<!-- [root] aws_lb_target_group_attachment.app (expand)&#45;&gt;[root] aws_lb_target_group.app (expand) -->
<g id="edge25" class="edge">
<title>[root] aws_lb_target_group_attachment.app (expand)&#45;&gt;[root] aws_lb_target_group.app (expand)</title>
<path fill="none" stroke="black" d="M1012.5,-359.7C1012.5,-351.98 1012.5,-342.71 1012.5,-334.11"/>
<polygon fill="black" stroke="black" points="1016,-334.1 1012.5,-324.1 1009,-334.1 1016,-334.1"/>
</g>
<!-- [root] aws_route_table.main (expand) -->
<g id="node13" class="node">
<title>[root] aws_route_table.main (expand)</title>
<polygon fill="none" stroke="black" points="1821.5,-252 1649.5,-252 1649.5,-216 1821.5,-216 1821.5,-252"/>
<text text-anchor="middle" x="1735.5" y="-230.3" font-family="Times,serif" font-size="14.00">aws_route_table.main</text>
</g>
<!-- [root] aws_route_table.main (expand)&#45;&gt;[root] aws_internet_gateway.main (expand) -->
<g id="edge26" class="edge">
<title>[root] aws_route_table.main (expand)&#45;&gt;[root] aws_internet_gateway.main (expand)</title>
<path fill="none" stroke="black" d="M1735.5,-215.7C1735.5,-207.98 1735.5,-198.71 1735.5,-190.11"/>
<polygon fill="black" stroke="black" points="1739,-190.1 1735.5,-180.1 1732,-190.1 1739,-190.1"/>
</g>
<!-- [root] local.subnets (expand) -->
<g id="node35" class="node">
<title>[root] local.subnets (expand)</title>
<ellipse fill="none" stroke="black" cx="1467.5" cy="-162" rx="143.77" ry="18"/>
<text text-anchor="middle" x="1467.5" y="-158.3" font-family="Times,serif" font-size="14.00">[root] local.subnets (expand)</text>
</g>
<!-- [root] aws_route_table.main (expand)&#45;&gt;[root] local.subnets (expand) -->
<g id="edge27" class="edge">
<title>[root] aws_route_table.main (expand)&#45;&gt;[root] local.subnets (expand)</title>
<path fill="none" stroke="black" d="M1670.28,-215.97C1629.69,-205.36 1577.54,-191.74 1536.29,-180.97"/>
<polygon fill="black" stroke="black" points="1537.16,-177.58 1526.6,-178.44 1535.39,-184.35 1537.16,-177.58"/>
</g>
<!-- [root] aws_route_table_association.main (expand) -->
<g id="node14" class="node">
<title>[root] aws_route_table_association.main (expand)</title>
<polygon fill="none" stroke="black" points="2052.5,-324 1794.5,-324 1794.5,-288 2052.5,-288 2052.5,-324"/>
<text text-anchor="middle" x="1923.5" y="-302.3" font-family="Times,serif" font-size="14.00">aws_route_table_association.main</text>
</g>
<!-- [root] aws_route_table_association.main (expand)&#45;&gt;[root] aws_route_table.main (expand) -->
<g id="edge28" class="edge">
<title>[root] aws_route_table_association.main (expand)&#45;&gt;[root] aws_route_table.main (expand)</title>
<path fill="none" stroke="black" d="M1877.51,-287.88C1851.35,-278.14 1818.41,-265.87 1790.85,-255.61"/>
<polygon fill="black" stroke="black" points="1791.93,-252.28 1781.34,-252.07 1789.49,-258.84 1791.93,-252.28"/>
</g>
<!-- [root] aws_route_table_association.main (expand)&#45;&gt;[root] aws_subnet.main (expand) -->
<g id="edge29" class="edge">
<title>[root] aws_route_table_association.main (expand)&#45;&gt;[root] aws_subnet.main (expand)</title>
<path fill="none" stroke="black" d="M1804.75,-287.97C1715.1,-275.11 1594.52,-257.81 1515.92,-246.54"/>
<polygon fill="black" stroke="black" points="1515.99,-243.01 1505.59,-245.05 1514.99,-249.94 1515.99,-243.01"/>
</g>
<!-- [root] aws_security_group.alb (expand)&#45;&gt;[root] aws_vpc.main (expand) -->
<g id="edge30" class="edge">
<title>[root] aws_security_group.alb (expand)&#45;&gt;[root] aws_vpc.main (expand)</title>
<path fill="none" stroke="black" d="M1113.15,-143.97C1147.66,-133.94 1191.46,-121.22 1227.49,-110.76"/>
<polygon fill="black" stroke="black" points="1228.8,-114.02 1237.43,-107.87 1226.85,-107.3 1228.8,-114.02"/>
</g>
<!-- [root] data.aws_ec2_managed_prefix_list.cloudfront (expand) -->
<g id="node25" class="node">
<title>[root] data.aws_ec2_managed_prefix_list.cloudfront (expand)</title>
<polygon fill="none" stroke="black" points="1219,-108 880,-108 880,-72 1219,-72 1219,-108"/>
<text text-anchor="middle" x="1049.5" y="-86.3" font-family="Times,serif" font-size="14.00">data.aws_ec2_managed_prefix_list.cloudfront</text>
</g>
<!-- [root] aws_security_group.alb (expand)&#45;&gt;[root] data.aws_ec2_managed_prefix_list.cloudfront (expand) -->
<g id="edge31" class="edge">
<title>[root] aws_security_group.alb (expand)&#45;&gt;[root] data.aws_ec2_managed_prefix_list.cloudfront (expand)</title>
<path fill="none" stroke="black" d="M1053.26,-143.7C1052.71,-135.98 1052.05,-126.71 1051.44,-118.11"/>
<polygon fill="black" stroke="black" points="1054.93,-117.83 1050.72,-108.1 1047.94,-118.33 1054.93,-117.83"/>
</g>
<!-- [root] aws_security_group.app (expand)&#45;&gt;[root] aws_security_group.alb (expand) -->
<g id="edge32" class="edge">
<title>[root] aws_security_group.app (expand)&#45;&gt;[root] aws_security_group.alb (expand)</title>
<path fill="none" stroke="black" d="M1031.92,-215.7C1035.29,-207.81 1039.37,-198.3 1043.12,-189.55"/>
<polygon fill="black" stroke="black" points="1046.45,-190.67 1047.17,-180.1 1040.01,-187.92 1046.45,-190.67"/>
</g>
<!-- [root] aws_security_group.elasticache (expand)&#45;&gt;[root] aws_security_group.app (expand) -->
<g id="edge33" class="edge">
<title>[root] aws_security_group.elasticache (expand)&#45;&gt;[root] aws_security_group.app (expand)</title>
<path fill="none" stroke="black" d="M1193.99,-287.97C1162.28,-278.06 1122.14,-265.51 1088.89,-255.12"/>
<polygon fill="black" stroke="black" points="1089.84,-251.75 1079.25,-252.11 1087.76,-258.43 1089.84,-251.75"/>
</g>
<!-- [root] aws_security_group.rds (expand)&#45;&gt;[root] aws_security_group.app (expand) -->
<g id="edge34" class="edge">
<title>[root] aws_security_group.rds (expand)&#45;&gt;[root] aws_security_group.app (expand)</title>
<path fill="none" stroke="black" d="M505.03,-289.32C508.22,-288.86 511.39,-288.42 514.5,-288 654.51,-269.08 816.95,-253.24 920.18,-243.95"/>
<polygon fill="black" stroke="black" points="920.65,-247.42 930.3,-243.04 920.02,-240.45 920.65,-247.42"/>
</g>
<!-- [root] aws_subnet.main (expand)&#45;&gt;[root] aws_vpc.main (expand) -->
<g id="edge35" class="edge">
<title>[root] aws_subnet.main (expand)&#45;&gt;[root] aws_vpc.main (expand)</title>
<path fill="none" stroke="black" d="M1366.88,-215.88C1347.42,-207.92 1327.91,-196.44 1314.5,-180 1300.41,-162.72 1296.08,-137.46 1295.03,-118.25"/>
<polygon fill="black" stroke="black" points="1298.52,-117.93 1294.75,-108.03 1291.53,-118.12 1298.52,-117.93"/>
</g>
<!-- [root] aws_subnet.main (expand)&#45;&gt;[root] local.subnets (expand) -->
<g id="edge36" class="edge">
<title>[root] aws_subnet.main (expand)&#45;&gt;[root] local.subnets (expand)</title>
<path fill="none" stroke="black" d="M1443.41,-215.7C1447.05,-207.73 1451.45,-198.1 1455.49,-189.26"/>
<polygon fill="black" stroke="black" points="1458.71,-190.65 1459.68,-180.1 1452.34,-187.74 1458.71,-190.65"/>
</g>
<!-- [root] provider[&quot;registry.terraform.io/hashicorp/aws&quot;] -->
<g id="node28" class="node">
<title>[root] provider[&quot;registry.terraform.io/hashicorp/aws&quot;]</title>
<polygon fill="none" stroke="black" points="1049.5,-36 724.24,-18 1049.5,0 1374.76,-18 1049.5,-36"/>
<text text-anchor="middle" x="1049.5" y="-14.3" font-family="Times,serif" font-size="14.00">provider[&quot;registry.terraform.io/hashicorp/aws&quot;]</text>
</g>
<!-- [root] aws_vpc.main (expand)&#45;&gt;[root] provider[&quot;registry.terraform.io/hashicorp/aws&quot;] -->
<g id="edge38" class="edge">
<title>[root] aws_vpc.main (expand)&#45;&gt;[root] provider[&quot;registry.terraform.io/hashicorp/aws&quot;]</title>
<path fill="none" stroke="black" d="M1237.2,-72.41C1198.86,-61.5 1148.78,-47.25 1110,-36.22"/>
<polygon fill="black" stroke="black" points="1110.47,-32.71 1099.89,-33.34 1108.55,-39.44 1110.47,-32.71"/>
</g>
<!-- [root] local.project (expand) -->
<g id="node36" class="node">
<title>[root] local.project (expand)</title>
<ellipse fill="none" stroke="black" cx="1942.5" cy="-18" rx="139.98" ry="18"/>
<text text-anchor="middle" x="1942.5" y="-14.3" font-family="Times,serif" font-size="14.00">[root] local.project (expand)</text>
</g>
<!-- [root] aws_vpc.main (expand)&#45;&gt;[root] local.project (expand) -->
<g id="edge37" class="edge">
<title>[root] aws_vpc.main (expand)&#45;&gt;[root] local.project (expand)</title>
<path fill="none" stroke="black" d="M1353.77,-82.7C1460.74,-71.12 1690.16,-46.3 1828.91,-31.29"/>
<polygon fill="black" stroke="black" points="1829.59,-34.74 1839.16,-30.18 1828.84,-27.78 1829.59,-34.74"/>
</g>
<!-- [root] aws_wafv2_web_acl.app (expand)&#45;&gt;[root] provider[&quot;registry.terraform.io/hashicorp/aws&quot;].us_east_1 -->
<g id="edge40" class="edge">
<title>[root] aws_wafv2_web_acl.app (expand)&#45;&gt;[root] provider[&quot;registry.terraform.io/hashicorp/aws&quot;].us_east_1</title>
<path fill="none" stroke="black" d="M2332.18,-287.97C2374.94,-277.04 2430.25,-262.91 2472.98,-251.99"/>
<polygon fill="black" stroke="black" points="2473.91,-255.37 2482.73,-249.5 2472.18,-248.59 2473.91,-255.37"/>
</g>
<!-- [root] aws_wafv2_web_acl.app (expand)&#45;&gt;[root] local.project (expand) -->
<g id="edge39" class="edge">
<title>[root] aws_wafv2_web_acl.app (expand)&#45;&gt;[root] local.project (expand)</title>
<path fill="none" stroke="black" d="M2190.95,-287.92C2171.04,-280.02 2151.25,-268.56 2137.5,-252 2085.26,-189.1 2153.82,-133.11 2099.5,-72 2084.18,-54.77 2063.07,-43.13 2041.29,-35.28"/>
<polygon fill="black" stroke="black" points="2042.19,-31.89 2031.6,-32.03 2039.97,-38.52 2042.19,-31.89"/>
</g>
<!-- [root] cloudflare_record.domain_cert (expand) -->
<g id="node22" class="node">
<title>[root] cloudflare_record.domain_cert (expand)</title>
<polygon fill="none" stroke="black" points="3098,-396 2865,-396 2865,-360 3098,-360 3098,-396"/>
<text text-anchor="middle" x="2981.5" y="-374.3" font-family="Times,serif" font-size="14.00">cloudflare_record.domain_cert</text>
</g>
<!-- [root] cloudflare_record.domain_cert (expand)&#45;&gt;[root] aws_acm_certificate.main (expand) -->
<g id="edge41" class="edge">
<title>[root] cloudflare_record.domain_cert (expand)&#45;&gt;[root] aws_acm_certificate.main (expand)</title>
<path fill="none" stroke="black" d="M2873.94,-359.97C2805.74,-349.17 2717.78,-335.23 2649.18,-324.37"/>
<polygon fill="black" stroke="black" points="2649.63,-320.9 2639.2,-322.79 2648.53,-327.81 2649.63,-320.9"/>
</g>
<!-- [root] data.cloudflare_zone.main (expand) -->
<g id="node26" class="node">
<title>[root] data.cloudflare_zone.main (expand)</title>
<polygon fill="none" stroke="black" points="3308,-324 3105,-324 3105,-288 3308,-288 3308,-324"/>
<text text-anchor="middle" x="3206.5" y="-302.3" font-family="Times,serif" font-size="14.00">data.cloudflare_zone.main</text>
</g>
<!-- [root] cloudflare_record.domain_cert (expand)&#45;&gt;[root] data.cloudflare_zone.main (expand) -->
<g id="edge42" class="edge">
<title>[root] cloudflare_record.domain_cert (expand)&#45;&gt;[root] data.cloudflare_zone.main (expand)</title>
<path fill="none" stroke="black" d="M3036.25,-359.97C3068.1,-350.06 3108.42,-337.51 3141.83,-327.12"/>
<polygon fill="black" stroke="black" points="3142.99,-330.42 3151.5,-324.11 3140.91,-323.74 3142.99,-330.42"/>
</g>
<!-- [root] cloudflare_record.main (expand) -->
<g id="node23" class="node">
<title>[root] cloudflare_record.main (expand)</title>
<polygon fill="none" stroke="black" points="3296.5,-396 3116.5,-396 3116.5,-360 3296.5,-360 3296.5,-396"/>
<text text-anchor="middle" x="3206.5" y="-374.3" font-family="Times,serif" font-size="14.00">cloudflare_record.main</text>
</g>
<!-- [root] cloudflare_record.main (expand)&#45;&gt;[root] data.cloudflare_zone.main (expand) -->
<g id="edge43" class="edge">
<title>[root] cloudflare_record.main (expand)&#45;&gt;[root] data.cloudflare_zone.main (expand)</title>
<path fill="none" stroke="black" d="M3206.5,-359.7C3206.5,-351.98 3206.5,-342.71 3206.5,-334.11"/>
<polygon fill="black" stroke="black" points="3210,-334.1 3206.5,-324.1 3203,-334.1 3210,-334.1"/>
</g>
<!-- [root] data.aws_ami.ubuntu (expand)&#45;&gt;[root] provider[&quot;registry.terraform.io/hashicorp/aws&quot;] -->
<g id="edge44" class="edge">
<title>[root] data.aws_ami.ubuntu (expand)&#45;&gt;[root] provider[&quot;registry.terraform.io/hashicorp/aws&quot;]</title>
<path fill="none" stroke="black" d="M827.8,-71.97C874.67,-60.77 935.63,-46.2 981.76,-35.18"/>
<polygon fill="black" stroke="black" points="982.75,-38.54 991.67,-32.82 981.13,-31.74 982.75,-38.54"/>
</g>
<!-- [root] data.aws_ec2_managed_prefix_list.cloudfront (expand)&#45;&gt;[root] provider[&quot;registry.terraform.io/hashicorp/aws&quot;] -->
<g id="edge45" class="edge">
<title>[root] data.aws_ec2_managed_prefix_list.cloudfront (expand)&#45;&gt;[root] provider[&quot;registry.terraform.io/hashicorp/aws&quot;]</title>
<path fill="none" stroke="black" d="M1049.5,-71.7C1049.5,-63.98 1049.5,-54.71 1049.5,-46.11"/>
<polygon fill="black" stroke="black" points="1053,-46.1 1049.5,-36.1 1046,-46.1 1053,-46.1"/>
</g>
<!-- [root] provider[&quot;registry.terraform.io/cloudflare/cloudflare&quot;] -->
<g id="node27" class="node">
<title>[root] provider[&quot;registry.terraform.io/cloudflare/cloudflare&quot;]</title>
<polygon fill="none" stroke="black" points="3672.5,-252 3306.85,-234 3672.5,-216 4038.15,-234 3672.5,-252"/>
<text text-anchor="middle" x="3672.5" y="-230.3" font-family="Times,serif" font-size="14.00">provider[&quot;registry.terraform.io/cloudflare/cloudflare&quot;]</text>
</g>
<!-- [root] data.cloudflare_zone.main (expand)&#45;&gt;[root] provider[&quot;registry.terraform.io/cloudflare/cloudflare&quot;] -->
<g id="edge46" class="edge">
<title>[root] data.cloudflare_zone.main (expand)&#45;&gt;[root] provider[&quot;registry.terraform.io/cloudflare/cloudflare&quot;]</title>
<path fill="none" stroke="black" d="M3308.19,-289.72C3388.03,-277.73 3498.4,-261.15 3576.69,-249.39"/>
<polygon fill="black" stroke="black" points="3577.66,-252.79 3587.03,-247.84 3576.62,-245.86 3577.66,-252.79"/>
</g>
<!-- [root] var.cloudflare_api_token -->
<g id="node30" class="node">
<title>[root] var.cloudflare_api_token</title>
<polygon fill="none" stroke="black" points="3760.5,-180 3578.5,-180 3578.5,-144 3766.5,-144 3766.5,-174 3760.5,-180"/>
<polyline fill="none" stroke="black" points="3760.5,-180 3760.5,-174 "/>
<polyline fill="none" stroke="black" points="3766.5,-174 3760.5,-174 "/>
<text text-anchor="middle" x="3672.5" y="-158.3" font-family="Times,serif" font-size="14.00">var.cloudflare_api_token</text>
</g>
<!-- [root] provider[&quot;registry.terraform.io/cloudflare/cloudflare&quot;]&#45;&gt;[root] var.cloudflare_api_token -->
<g id="edge50" class="edge">
<title>[root] provider[&quot;registry.terraform.io/cloudflare/cloudflare&quot;]&#45;&gt;[root] var.cloudflare_api_token</title>
<path fill="none" stroke="black" d="M3672.5,-215.7C3672.5,-207.98 3672.5,-198.71 3672.5,-190.11"/>
<polygon fill="black" stroke="black" points="3676,-190.1 3672.5,-180.1 3669,-190.1 3676,-190.1"/>
</g>
<!-- [root] local.origin_id (expand)&#45;&gt;[root] local.project (expand) -->
<g id="edge47" class="edge">
<title>[root] local.origin_id (expand)&#45;&gt;[root] local.project (expand)</title>
<path fill="none" stroke="black" d="M1942.5,-71.7C1942.5,-63.98 1942.5,-54.71 1942.5,-46.11"/>
<polygon fill="black" stroke="black" points="1946,-46.1 1942.5,-36.1 1939,-46.1 1946,-46.1"/>
</g>
<!-- [root] provider[&quot;registry.terraform.io/cloudflare/cloudflare&quot;] (close) -->
<g id="node37" class="node">
<title>[root] provider[&quot;registry.terraform.io/cloudflare/cloudflare&quot;] (close)</title>
<ellipse fill="none" stroke="black" cx="2981.5" cy="-450" rx="320.34" ry="18"/>
<text text-anchor="middle" x="2981.5" y="-446.3" font-family="Times,serif" font-size="14.00">[root] provider[&quot;registry.terraform.io/cloudflare/cloudflare&quot;] (close)</text>
</g>
<!-- [root] provider[&quot;registry.terraform.io/cloudflare/cloudflare&quot;] (close)&#45;&gt;[root] cloudflare_record.domain_cert (expand) -->
<g id="edge48" class="edge">
<title>[root] provider[&quot;registry.terraform.io/cloudflare/cloudflare&quot;] (close)&#45;&gt;[root] cloudflare_record.domain_cert (expand)</title>
<path fill="none" stroke="black" d="M2981.5,-431.7C2981.5,-423.98 2981.5,-414.71 2981.5,-406.11"/>
<polygon fill="black" stroke="black" points="2985,-406.1 2981.5,-396.1 2978,-406.1 2985,-406.1"/>
</g>
<!-- [root] provider[&quot;registry.terraform.io/cloudflare/cloudflare&quot;] (close)&#45;&gt;[root] cloudflare_record.main (expand) -->
<g id="edge49" class="edge">
<title>[root] provider[&quot;registry.terraform.io/cloudflare/cloudflare&quot;] (close)&#45;&gt;[root] cloudflare_record.main (expand)</title>
<path fill="none" stroke="black" d="M3035.39,-432.23C3067.34,-422.29 3108.04,-409.63 3141.73,-399.15"/>
<polygon fill="black" stroke="black" points="3142.97,-402.43 3151.48,-396.12 3140.9,-395.74 3142.97,-402.43"/>
</g>
<!-- [root] provider[&quot;registry.terraform.io/hashicorp/aws&quot;] (close) -->
<g id="node38" class="node">
<title>[root] provider[&quot;registry.terraform.io/hashicorp/aws&quot;] (close)</title>
<ellipse fill="none" stroke="black" cx="1638.5" cy="-450" rx="291.65" ry="18"/>
<text text-anchor="middle" x="1638.5" y="-446.3" font-family="Times,serif" font-size="14.00">[root] provider[&quot;registry.terraform.io/hashicorp/aws&quot;] (close)</text>
</g>
<!-- [root] provider[&quot;registry.terraform.io/hashicorp/aws&quot;] (close)&#45;&gt;[root] aws_cloudfront_distribution.app (expand) -->
<g id="edge51" class="edge">
<title>[root] provider[&quot;registry.terraform.io/hashicorp/aws&quot;] (close)&#45;&gt;[root] aws_cloudfront_distribution.app (expand)</title>
<path fill="none" stroke="black" d="M1728,-432.85C1785.88,-422.41 1861.44,-408.78 1922.06,-397.84"/>
<polygon fill="black" stroke="black" points="1922.82,-401.26 1932.04,-396.04 1921.57,-394.37 1922.82,-401.26"/>
</g>
<!-- [root] provider[&quot;registry.terraform.io/hashicorp/aws&quot;] (close)&#45;&gt;[root] aws_db_instance.main (expand) -->
<g id="edge52" class="edge">
<title>[root] provider[&quot;registry.terraform.io/hashicorp/aws&quot;] (close)&#45;&gt;[root] aws_db_instance.main (expand)</title>
<path fill="none" stroke="black" d="M1432.26,-437.22C1165.03,-421.97 709.86,-395.98 510.69,-384.61"/>
<polygon fill="black" stroke="black" points="510.72,-381.1 500.54,-384.03 510.32,-388.09 510.72,-381.1"/>
</g>
<!-- [root] provider[&quot;registry.terraform.io/hashicorp/aws&quot;] (close)&#45;&gt;[root] aws_elasticache_cluster.main (expand) -->
<g id="edge53" class="edge">
<title>[root] provider[&quot;registry.terraform.io/hashicorp/aws&quot;] (close)&#45;&gt;[root] aws_elasticache_cluster.main (expand)</title>
<path fill="none" stroke="black" d="M1638.5,-431.7C1638.5,-423.98 1638.5,-414.71 1638.5,-406.11"/>
<polygon fill="black" stroke="black" points="1642,-406.1 1638.5,-396.1 1635,-406.1 1642,-406.1"/>
</g>
<!-- [root] provider[&quot;registry.terraform.io/hashicorp/aws&quot;] (close)&#45;&gt;[root] aws_lb_listener.app (expand) -->
<g id="edge54" class="edge">
<title>[root] provider[&quot;registry.terraform.io/hashicorp/aws&quot;] (close)&#45;&gt;[root] aws_lb_listener.app (expand)</title>
<path fill="none" stroke="black" d="M1588.68,-432.23C1559.4,-422.38 1522.17,-409.85 1491.18,-399.42"/>
<polygon fill="black" stroke="black" points="1491.95,-395.99 1481.36,-396.12 1489.72,-402.62 1491.95,-395.99"/>
</g>
<!-- [root] provider[&quot;registry.terraform.io/hashicorp/aws&quot;] (close)&#45;&gt;[root] aws_lb_target_group_attachment.app (expand) -->
<g id="edge55" class="edge">
<title>[root] provider[&quot;registry.terraform.io/hashicorp/aws&quot;] (close)&#45;&gt;[root] aws_lb_target_group_attachment.app (expand)</title>
<path fill="none" stroke="black" d="M1504.21,-433.98C1404.6,-422.84 1268.67,-407.65 1164.98,-396.05"/>
<polygon fill="black" stroke="black" points="1165.06,-392.54 1154.73,-394.9 1164.28,-399.49 1165.06,-392.54"/>
</g>
<!-- [root] provider[&quot;registry.terraform.io/hashicorp/aws&quot;] (close)&#45;&gt;[root] aws_route_table_association.main (expand) -->
<g id="edge56" class="edge">
<title>[root] provider[&quot;registry.terraform.io/hashicorp/aws&quot;] (close)&#45;&gt;[root] aws_route_table_association.main (expand)</title>
<path fill="none" stroke="black" d="M1679.22,-432.18C1702.88,-422.15 1733.13,-408.9 1759.5,-396 1803.25,-374.59 1852.19,-347.63 1885.12,-329.02"/>
<polygon fill="black" stroke="black" points="1887,-331.98 1893.97,-324.01 1883.54,-325.89 1887,-331.98"/>
</g>
<!-- [root] provider[&quot;registry.terraform.io/hashicorp/aws&quot;].us_east_1 (close) -->
<g id="node39" class="node">
<title>[root] provider[&quot;registry.terraform.io/hashicorp/aws&quot;].us_east_1 (close)</title>
<ellipse fill="none" stroke="black" cx="2507.5" cy="-378" rx="339.84" ry="18"/>
<text text-anchor="middle" x="2507.5" y="-374.3" font-family="Times,serif" font-size="14.00">[root] provider[&quot;registry.terraform.io/hashicorp/aws&quot;].us_east_1 (close)</text>
</g>
<!-- [root] provider[&quot;registry.terraform.io/hashicorp/aws&quot;].us_east_1 (close)&#45;&gt;[root] aws_acm_certificate.main (expand) -->
<g id="edge57" class="edge">
<title>[root] provider[&quot;registry.terraform.io/hashicorp/aws&quot;].us_east_1 (close)&#45;&gt;[root] aws_acm_certificate.main (expand)</title>
<path fill="none" stroke="black" d="M2515.41,-359.7C2519.05,-351.73 2523.45,-342.1 2527.49,-333.26"/>
<polygon fill="black" stroke="black" points="2530.71,-334.65 2531.68,-324.1 2524.34,-331.74 2530.71,-334.65"/>
</g>
<!-- [root] provider[&quot;registry.terraform.io/hashicorp/aws&quot;].us_east_1 (close)&#45;&gt;[root] aws_wafv2_web_acl.app (expand) -->
<g id="edge58" class="edge">
<title>[root] provider[&quot;registry.terraform.io/hashicorp/aws&quot;].us_east_1 (close)&#45;&gt;[root] aws_wafv2_web_acl.app (expand)</title>
<path fill="none" stroke="black" d="M2449.53,-360.23C2415.03,-350.25 2371.02,-337.52 2334.7,-327.02"/>
<polygon fill="black" stroke="black" points="2335.25,-323.53 2324.67,-324.12 2333.31,-330.26 2335.25,-323.53"/>
</g>
<!-- [root] root -->
<g id="node40" class="node">
<title>[root] root</title>
<ellipse fill="none" stroke="black" cx="2507.5" cy="-522" rx="58.49" ry="18"/>
<text text-anchor="middle" x="2507.5" y="-518.3" font-family="Times,serif" font-size="14.00">[root] root</text>
</g>
<!-- [root] root&#45;&gt;[root] provider[&quot;registry.terraform.io/cloudflare/cloudflare&quot;] (close) -->
<g id="edge59" class="edge">
<title>[root] root&#45;&gt;[root] provider[&quot;registry.terraform.io/cloudflare/cloudflare&quot;] (close)</title>
<path fill="none" stroke="black" d="M2559.13,-513.38C2631.62,-502.67 2765.63,-482.88 2863.31,-468.45"/>
<polygon fill="black" stroke="black" points="2863.86,-471.91 2873.25,-466.99 2862.84,-464.99 2863.86,-471.91"/>
</g>
<!-- [root] root&#45;&gt;[root] provider[&quot;registry.terraform.io/hashicorp/aws&quot;] (close) -->
<g id="edge60" class="edge">
<title>[root] root&#45;&gt;[root] provider[&quot;registry.terraform.io/hashicorp/aws&quot;] (close)</title>
<path fill="none" stroke="black" d="M2451.49,-516.49C2325.8,-506.36 2016.78,-481.47 1817.99,-465.46"/>
<polygon fill="black" stroke="black" points="1818.27,-461.97 1808.02,-464.66 1817.71,-468.95 1818.27,-461.97"/>
</g>
<!-- [root] root&#45;&gt;[root] provider[&quot;registry.terraform.io/hashicorp/aws&quot;].us_east_1 (close) -->
<g id="edge61" class="edge">
<title>[root] root&#45;&gt;[root] provider[&quot;registry.terraform.io/hashicorp/aws&quot;].us_east_1 (close)</title>
<path fill="none" stroke="black" d="M2507.5,-503.87C2507.5,-479.67 2507.5,-435.21 2507.5,-406.39"/>
<polygon fill="black" stroke="black" points="2511,-406.19 2507.5,-396.19 2504,-406.19 2511,-406.19"/>
</g>
</g>
</svg>
