<?xml version="1.0" encoding="UTF-8" standalone="no"?>
<!DOCTYPE svg PUBLIC "-//W3C//DTD SVG 1.1//EN"
 "http://www.w3.org/Graphics/SVG/1.1/DTD/svg11.dtd">
<!-- Generated by graphviz version 2.43.0 (0)
 -->
<!-- Title: %3 Pages: 1 -->
<svg width="3017pt" height="548pt"
 viewBox="0.00 0.00 3017.32 548.00" xmlns="http://www.w3.org/2000/svg" xmlns:xlink="http://www.w3.org/1999/xlink">
<g id="graph0" class="graph" transform="scale(1 1) rotate(0) translate(4 544)">
<title>%3</title>
<polygon fill="white" stroke="transparent" points="-4,4 -4,-544 3013.32,-544 3013.32,4 -4,4"/>
<!-- [root] aws_acm_certificate.main (expand) -->
<g id="node1" class="node">
<title>[root] aws_acm_certificate.main (expand)</title>
<polygon fill="none" stroke="black" points="1613,-324 1414,-324 1414,-288 1613,-288 1613,-324"/>
<text text-anchor="middle" x="1513.5" y="-302.3" font-family="Times,serif" font-size="14.00">aws_acm_certificate.main</text>
</g>
<!-- [root] provider[&quot;registry.terraform.io/hashicorp/aws&quot;].us_east_1 -->
<g id="node22" class="node">
<title>[root] provider[&quot;registry.terraform.io/hashicorp/aws&quot;].us_east_1</title>
<polygon fill="none" stroke="black" points="1510.5,-252 1117.2,-234 1510.5,-216 1903.8,-234 1510.5,-252"/>
<text text-anchor="middle" x="1510.5" y="-230.3" font-family="Times,serif" font-size="14.00">provider[&quot;registry.terraform.io/hashicorp/aws&quot;].us_east_1</text>
</g>
<!-- [root] aws_acm_certificate.main (expand)&#45;&gt;[root] provider[&quot;registry.terraform.io/hashicorp/aws&quot;].us_east_1 -->
<g id="edge2" class="edge">
<title>[root] aws_acm_certificate.main (expand)&#45;&gt;[root] provider[&quot;registry.terraform.io/hashicorp/aws&quot;].us_east_1</title>
<path fill="none" stroke="black" d="M1512.76,-287.7C1512.43,-279.98 1512.03,-270.71 1511.66,-262.11"/>
<polygon fill="black" stroke="black" points="1515.16,-261.95 1511.23,-252.1 1508.16,-262.25 1515.16,-261.95"/>
</g>
<!-- [root] local.main_domain (expand) -->
<g id="node24" class="node">
<title>[root] local.main_domain (expand)</title>
<ellipse fill="none" stroke="black" cx="2090.5" cy="-234" rx="168.97" ry="18"/>
<text text-anchor="middle" x="2090.5" y="-230.3" font-family="Times,serif" font-size="14.00">[root] local.main_domain (expand)</text>
</g>
<!-- [root] aws_acm_certificate.main (expand)&#45;&gt;[root] local.main_domain (expand) -->
<g id="edge1" class="edge">
<title>[root] aws_acm_certificate.main (expand)&#45;&gt;[root] local.main_domain (expand)</title>
<path fill="none" stroke="black" d="M1613.02,-292.93C1713.11,-280.78 1867.4,-262.07 1973.34,-249.21"/>
<polygon fill="black" stroke="black" points="1973.93,-252.67 1983.44,-247.99 1973.09,-245.72 1973.93,-252.67"/>
</g>
<!-- [root] aws_cloudfront_distribution.app (expand) -->
<g id="node2" class="node">
<title>[root] aws_cloudfront_distribution.app (expand)</title>
<polygon fill="none" stroke="black" points="1176.5,-396 930.5,-396 930.5,-360 1176.5,-360 1176.5,-396"/>
<text text-anchor="middle" x="1053.5" y="-374.3" font-family="Times,serif" font-size="14.00">aws_cloudfront_distribution.app</text>
</g>
<!-- [root] aws_cloudfront_distribution.app (expand)&#45;&gt;[root] aws_acm_certificate.main (expand) -->
<g id="edge3" class="edge">
<title>[root] aws_cloudfront_distribution.app (expand)&#45;&gt;[root] aws_acm_certificate.main (expand)</title>
<path fill="none" stroke="black" d="M1165.44,-359.97C1237.96,-348.93 1331.95,-334.63 1403.98,-323.67"/>
<polygon fill="black" stroke="black" points="1404.64,-327.11 1414,-322.14 1403.58,-320.19 1404.64,-327.11"/>
</g>
<!-- [root] aws_lb.app (expand) -->
<g id="node5" class="node">
<title>[root] aws_lb.app (expand)</title>
<polygon fill="none" stroke="black" points="731,-324 636,-324 636,-288 731,-288 731,-324"/>
<text text-anchor="middle" x="683.5" y="-302.3" font-family="Times,serif" font-size="14.00">aws_lb.app</text>
</g>
<!-- [root] aws_cloudfront_distribution.app (expand)&#45;&gt;[root] aws_lb.app (expand) -->
<g id="edge4" class="edge">
<title>[root] aws_cloudfront_distribution.app (expand)&#45;&gt;[root] aws_lb.app (expand)</title>
<path fill="none" stroke="black" d="M932.05,-359.97C876.51,-351.32 809.76,-339.74 741.38,-324.06"/>
<polygon fill="black" stroke="black" points="741.81,-320.56 731.28,-321.71 740.23,-327.38 741.81,-320.56"/>
</g>
<!-- [root] local.origin_id (expand) -->
<g id="node25" class="node">
<title>[root] local.origin_id (expand)</title>
<ellipse fill="none" stroke="black" cx="1026.5" cy="-90" rx="147.57" ry="18"/>
<text text-anchor="middle" x="1026.5" y="-86.3" font-family="Times,serif" font-size="14.00">[root] local.origin_id (expand)</text>
</g>
<!-- [root] aws_cloudfront_distribution.app (expand)&#45;&gt;[root] local.origin_id (expand) -->
<g id="edge5" class="edge">
<title>[root] aws_cloudfront_distribution.app (expand)&#45;&gt;[root] local.origin_id (expand)</title>
<path fill="none" stroke="black" d="M1059.17,-359.99C1071.34,-320.64 1096.74,-220.81 1069.5,-144 1065.84,-133.68 1059.21,-123.9 1052.24,-115.61"/>
<polygon fill="black" stroke="black" points="1054.83,-113.26 1045.54,-108.16 1049.63,-117.94 1054.83,-113.26"/>
</g>
<!-- [root] aws_instance.app (expand) -->
<g id="node3" class="node">
<title>[root] aws_instance.app (expand)</title>
<polygon fill="none" stroke="black" points="404.5,-324 262.5,-324 262.5,-288 404.5,-288 404.5,-324"/>
<text text-anchor="middle" x="333.5" y="-302.3" font-family="Times,serif" font-size="14.00">aws_instance.app</text>
</g>
<!-- [root] aws_security_group.app (expand) -->
<g id="node12" class="node">
<title>[root] aws_security_group.app (expand)</title>
<polygon fill="none" stroke="black" points="436.5,-252 248.5,-252 248.5,-216 436.5,-216 436.5,-252"/>
<text text-anchor="middle" x="342.5" y="-230.3" font-family="Times,serif" font-size="14.00">aws_security_group.app</text>
</g>
<!-- [root] aws_instance.app (expand)&#45;&gt;[root] aws_security_group.app (expand) -->
<g id="edge6" class="edge">
<title>[root] aws_instance.app (expand)&#45;&gt;[root] aws_security_group.app (expand)</title>
<path fill="none" stroke="black" d="M335.72,-287.7C336.72,-279.98 337.91,-270.71 339.01,-262.11"/>
<polygon fill="black" stroke="black" points="342.5,-262.47 340.3,-252.1 335.55,-261.58 342.5,-262.47"/>
</g>
<!-- [root] aws_subnet.main (expand) -->
<g id="node13" class="node">
<title>[root] aws_subnet.main (expand)</title>
<polygon fill="none" stroke="black" points="753.5,-252 613.5,-252 613.5,-216 753.5,-216 753.5,-252"/>
<text text-anchor="middle" x="683.5" y="-230.3" font-family="Times,serif" font-size="14.00">aws_subnet.main</text>
</g>
<!-- [root] aws_instance.app (expand)&#45;&gt;[root] aws_subnet.main (expand) -->
<g id="edge7" class="edge">
<title>[root] aws_instance.app (expand)&#45;&gt;[root] aws_subnet.main (expand)</title>
<path fill="none" stroke="black" d="M404.59,-289.83C407.6,-289.21 410.58,-288.6 413.5,-288 477.14,-274.99 549.36,-260.85 603.08,-250.45"/>
<polygon fill="black" stroke="black" points="604.08,-253.82 613.23,-248.48 602.75,-246.95 604.08,-253.82"/>
</g>
<!-- [root] data.aws_ami.ubuntu (expand) -->
<g id="node17" class="node">
<title>[root] data.aws_ami.ubuntu (expand)</title>
<polygon fill="none" stroke="black" points="169,-108 0,-108 0,-72 169,-72 169,-108"/>
<text text-anchor="middle" x="84.5" y="-86.3" font-family="Times,serif" font-size="14.00">data.aws_ami.ubuntu</text>
</g>
<!-- [root] aws_instance.app (expand)&#45;&gt;[root] data.aws_ami.ubuntu (expand) -->
<g id="edge8" class="edge">
<title>[root] aws_instance.app (expand)&#45;&gt;[root] data.aws_ami.ubuntu (expand)</title>
<path fill="none" stroke="black" d="M297.6,-287.91C279.4,-278.48 257.42,-265.88 239.5,-252 185.48,-210.17 132.45,-149.72 104.59,-116.05"/>
<polygon fill="black" stroke="black" points="107.12,-113.61 98.07,-108.09 101.71,-118.04 107.12,-113.61"/>
</g>
<!-- [root] aws_internet_gateway.main (expand) -->
<g id="node4" class="node">
<title>[root] aws_internet_gateway.main (expand)</title>
<polygon fill="none" stroke="black" points="1061,-180 848,-180 848,-144 1061,-144 1061,-180"/>
<text text-anchor="middle" x="954.5" y="-158.3" font-family="Times,serif" font-size="14.00">aws_internet_gateway.main</text>
</g>
<!-- [root] aws_vpc.main (expand) -->
<g id="node14" class="node">
<title>[root] aws_vpc.main (expand)</title>
<polygon fill="none" stroke="black" points="660.5,-108 544.5,-108 544.5,-72 660.5,-72 660.5,-108"/>
<text text-anchor="middle" x="602.5" y="-86.3" font-family="Times,serif" font-size="14.00">aws_vpc.main</text>
</g>
<!-- [root] aws_internet_gateway.main (expand)&#45;&gt;[root] aws_vpc.main (expand) -->
<g id="edge9" class="edge">
<title>[root] aws_internet_gateway.main (expand)&#45;&gt;[root] aws_vpc.main (expand)</title>
<path fill="none" stroke="black" d="M868.84,-143.97C807.89,-131.84 727.1,-115.78 670.55,-104.53"/>
<polygon fill="black" stroke="black" points="671.12,-101.08 660.63,-102.56 669.76,-107.94 671.12,-101.08"/>
</g>
<!-- [root] aws_security_group.alb (expand) -->
<g id="node11" class="node">
<title>[root] aws_security_group.alb (expand)</title>
<polygon fill="none" stroke="black" points="448.5,-180 264.5,-180 264.5,-144 448.5,-144 448.5,-180"/>
<text text-anchor="middle" x="356.5" y="-158.3" font-family="Times,serif" font-size="14.00">aws_security_group.alb</text>
</g>
<!-- [root] aws_lb.app (expand)&#45;&gt;[root] aws_security_group.alb (expand) -->
<g id="edge10" class="edge">
<title>[root] aws_lb.app (expand)&#45;&gt;[root] aws_security_group.alb (expand)</title>
<path fill="none" stroke="black" d="M644.06,-287.87C584.07,-261.82 470.04,-212.3 405.05,-184.08"/>
<polygon fill="black" stroke="black" points="406.4,-180.85 395.83,-180.08 403.61,-187.27 406.4,-180.85"/>
</g>
<!-- [root] aws_lb.app (expand)&#45;&gt;[root] aws_subnet.main (expand) -->
<g id="edge11" class="edge">
<title>[root] aws_lb.app (expand)&#45;&gt;[root] aws_subnet.main (expand)</title>
<path fill="none" stroke="black" d="M683.5,-287.7C683.5,-279.98 683.5,-270.71 683.5,-262.11"/>
<polygon fill="black" stroke="black" points="687,-262.1 683.5,-252.1 680,-262.1 687,-262.1"/>
</g>
<!-- [root] aws_lb_listener.app (expand) -->
<g id="node6" class="node">
<title>[root] aws_lb_listener.app (expand)</title>
<polygon fill="none" stroke="black" points="798,-396 643,-396 643,-360 798,-360 798,-396"/>
<text text-anchor="middle" x="720.5" y="-374.3" font-family="Times,serif" font-size="14.00">aws_lb_listener.app</text>
</g>
<!-- [root] aws_lb_listener.app (expand)&#45;&gt;[root] aws_lb.app (expand) -->
<g id="edge12" class="edge">
<title>[root] aws_lb_listener.app (expand)&#45;&gt;[root] aws_lb.app (expand)</title>
<path fill="none" stroke="black" d="M711.35,-359.7C707.1,-351.64 701.94,-341.89 697.23,-332.98"/>
<polygon fill="black" stroke="black" points="700.31,-331.31 692.54,-324.1 694.12,-334.58 700.31,-331.31"/>
</g>
<!-- [root] aws_lb_target_group.app (expand) -->
<g id="node7" class="node">
<title>[root] aws_lb_target_group.app (expand)</title>
<polygon fill="none" stroke="black" points="618,-324 423,-324 423,-288 618,-288 618,-324"/>
<text text-anchor="middle" x="520.5" y="-302.3" font-family="Times,serif" font-size="14.00">aws_lb_target_group.app</text>
</g>
<!-- [root] aws_lb_listener.app (expand)&#45;&gt;[root] aws_lb_target_group.app (expand) -->
<g id="edge13" class="edge">
<title>[root] aws_lb_listener.app (expand)&#45;&gt;[root] aws_lb_target_group.app (expand)</title>
<path fill="none" stroke="black" d="M671.83,-359.97C643.89,-350.19 608.6,-337.84 579.14,-327.52"/>
<polygon fill="black" stroke="black" points="579.98,-324.11 569.39,-324.11 577.67,-330.72 579.98,-324.11"/>
</g>
<!-- [root] aws_lb_target_group.app (expand)&#45;&gt;[root] aws_vpc.main (expand) -->
<g id="edge14" class="edge">
<title>[root] aws_lb_target_group.app (expand)&#45;&gt;[root] aws_vpc.main (expand)</title>
<path fill="none" stroke="black" d="M515.92,-287.71C508.73,-256.73 498.07,-190.63 523.5,-144 530.31,-131.52 541.47,-121.43 553.29,-113.55"/>
<polygon fill="black" stroke="black" points="555.3,-116.43 561.97,-108.2 551.62,-110.47 555.3,-116.43"/>
</g>
<!-- [root] aws_lb_target_group_attachment.app (expand) -->
<g id="node8" class="node">
<title>[root] aws_lb_target_group_attachment.app (expand)</title>
<polygon fill="none" stroke="black" points="624.5,-396 340.5,-396 340.5,-360 624.5,-360 624.5,-396"/>
<text text-anchor="middle" x="482.5" y="-374.3" font-family="Times,serif" font-size="14.00">aws_lb_target_group_attachment.app</text>
</g>
<!-- [root] aws_lb_target_group_attachment.app (expand)&#45;&gt;[root] aws_instance.app (expand) -->
<g id="edge15" class="edge">
<title>[root] aws_lb_target_group_attachment.app (expand)&#45;&gt;[root] aws_instance.app (expand)</title>
<path fill="none" stroke="black" d="M446.05,-359.88C425.86,-350.39 400.58,-338.51 379.09,-328.42"/>
<polygon fill="black" stroke="black" points="380.37,-325.15 369.83,-324.07 377.39,-331.49 380.37,-325.15"/>
</g>
<!-- [root] aws_lb_target_group_attachment.app (expand)&#45;&gt;[root] aws_lb_target_group.app (expand) -->
<g id="edge16" class="edge">
<title>[root] aws_lb_target_group_attachment.app (expand)&#45;&gt;[root] aws_lb_target_group.app (expand)</title>
<path fill="none" stroke="black" d="M491.89,-359.7C496.26,-351.64 501.56,-341.89 506.4,-332.98"/>
<polygon fill="black" stroke="black" points="509.52,-334.56 511.21,-324.1 503.37,-331.22 509.52,-334.56"/>
</g>
<!-- [root] aws_route_table.main (expand) -->
<g id="node9" class="node">
<title>[root] aws_route_table.main (expand)</title>
<polygon fill="none" stroke="black" points="964.5,-252 792.5,-252 792.5,-216 964.5,-216 964.5,-252"/>
<text text-anchor="middle" x="878.5" y="-230.3" font-family="Times,serif" font-size="14.00">aws_route_table.main</text>
</g>
<!-- [root] aws_route_table.main (expand)&#45;&gt;[root] aws_internet_gateway.main (expand) -->
<g id="edge17" class="edge">
<title>[root] aws_route_table.main (expand)&#45;&gt;[root] aws_internet_gateway.main (expand)</title>
<path fill="none" stroke="black" d="M897.29,-215.7C906.67,-207.05 918.18,-196.45 928.41,-187.03"/>
<polygon fill="black" stroke="black" points="930.95,-189.45 935.93,-180.1 926.2,-184.3 930.95,-189.45"/>
</g>
<!-- [root] local.subnets (expand) -->
<g id="node26" class="node">
<title>[root] local.subnets (expand)</title>
<ellipse fill="none" stroke="black" cx="686.5" cy="-162" rx="143.77" ry="18"/>
<text text-anchor="middle" x="686.5" y="-158.3" font-family="Times,serif" font-size="14.00">[root] local.subnets (expand)</text>
</g>
<!-- [root] aws_route_table.main (expand)&#45;&gt;[root] local.subnets (expand) -->
<g id="edge18" class="edge">
<title>[root] aws_route_table.main (expand)&#45;&gt;[root] local.subnets (expand)</title>
<path fill="none" stroke="black" d="M831.53,-215.88C804,-205.84 769.12,-193.12 740.46,-182.67"/>
<polygon fill="black" stroke="black" points="741.6,-179.36 731,-179.23 739.2,-185.94 741.6,-179.36"/>
</g>
<!-- [root] aws_route_table_association.main (expand) -->
<g id="node10" class="node">
<title>[root] aws_route_table_association.main (expand)</title>
<polygon fill="none" stroke="black" points="1007.5,-324 749.5,-324 749.5,-288 1007.5,-288 1007.5,-324"/>
<text text-anchor="middle" x="878.5" y="-302.3" font-family="Times,serif" font-size="14.00">aws_route_table_association.main</text>
</g>
<!-- [root] aws_route_table_association.main (expand)&#45;&gt;[root] aws_route_table.main (expand) -->
<g id="edge19" class="edge">
<title>[root] aws_route_table_association.main (expand)&#45;&gt;[root] aws_route_table.main (expand)</title>
<path fill="none" stroke="black" d="M878.5,-287.7C878.5,-279.98 878.5,-270.71 878.5,-262.11"/>
<polygon fill="black" stroke="black" points="882,-262.1 878.5,-252.1 875,-262.1 882,-262.1"/>
</g>
<!-- [root] aws_route_table_association.main (expand)&#45;&gt;[root] aws_subnet.main (expand) -->
<g id="edge20" class="edge">
<title>[root] aws_route_table_association.main (expand)&#45;&gt;[root] aws_subnet.main (expand)</title>
<path fill="none" stroke="black" d="M830.8,-287.88C803.55,-278.09 769.2,-265.77 740.53,-255.47"/>
<polygon fill="black" stroke="black" points="741.64,-252.15 731.05,-252.07 739.28,-258.74 741.64,-252.15"/>
</g>
<!-- [root] aws_security_group.alb (expand)&#45;&gt;[root] aws_vpc.main (expand) -->
<g id="edge21" class="edge">
<title>[root] aws_security_group.alb (expand)&#45;&gt;[root] aws_vpc.main (expand)</title>
<path fill="none" stroke="black" d="M416.36,-143.97C452.14,-133.79 497.68,-120.83 534.77,-110.27"/>
<polygon fill="black" stroke="black" points="535.83,-113.61 544.49,-107.51 533.92,-106.88 535.83,-113.61"/>
</g>
<!-- [root] data.aws_ec2_managed_prefix_list.cloudfront (expand) -->
<g id="node18" class="node">
<title>[root] data.aws_ec2_managed_prefix_list.cloudfront (expand)</title>
<polygon fill="none" stroke="black" points="526,-108 187,-108 187,-72 526,-72 526,-108"/>
<text text-anchor="middle" x="356.5" y="-86.3" font-family="Times,serif" font-size="14.00">data.aws_ec2_managed_prefix_list.cloudfront</text>
</g>
<!-- [root] aws_security_group.alb (expand)&#45;&gt;[root] data.aws_ec2_managed_prefix_list.cloudfront (expand) -->
<g id="edge22" class="edge">
<title>[root] aws_security_group.alb (expand)&#45;&gt;[root] data.aws_ec2_managed_prefix_list.cloudfront (expand)</title>
<path fill="none" stroke="black" d="M356.5,-143.7C356.5,-135.98 356.5,-126.71 356.5,-118.11"/>
<polygon fill="black" stroke="black" points="360,-118.1 356.5,-108.1 353,-118.1 360,-118.1"/>
</g>
<!-- [root] aws_security_group.app (expand)&#45;&gt;[root] aws_security_group.alb (expand) -->
<g id="edge23" class="edge">
<title>[root] aws_security_group.app (expand)&#45;&gt;[root] aws_security_group.alb (expand)</title>
<path fill="none" stroke="black" d="M345.96,-215.7C347.5,-207.98 349.36,-198.71 351.08,-190.11"/>
<polygon fill="black" stroke="black" points="354.55,-190.6 353.08,-180.1 347.69,-189.22 354.55,-190.6"/>
</g>
<!-- [root] aws_subnet.main (expand)&#45;&gt;[root] aws_vpc.main (expand) -->
<g id="edge24" class="edge">
<title>[root] aws_subnet.main (expand)&#45;&gt;[root] aws_vpc.main (expand)</title>
<path fill="none" stroke="black" d="M613.42,-225.99C583.69,-219.14 551.76,-205.82 533.5,-180 524.26,-166.94 526.43,-158.35 533.5,-144 539.46,-131.91 549.65,-121.8 560.4,-113.77"/>
<polygon fill="black" stroke="black" points="562.44,-116.61 568.66,-108.04 558.45,-110.86 562.44,-116.61"/>
</g>
<!-- [root] aws_subnet.main (expand)&#45;&gt;[root] local.subnets (expand) -->
<g id="edge25" class="edge">
<title>[root] aws_subnet.main (expand)&#45;&gt;[root] local.subnets (expand)</title>
<path fill="none" stroke="black" d="M684.24,-215.7C684.57,-207.98 684.97,-198.71 685.34,-190.11"/>
<polygon fill="black" stroke="black" points="688.84,-190.25 685.77,-180.1 681.84,-189.95 688.84,-190.25"/>
</g>
<!-- [root] provider[&quot;registry.terraform.io/hashicorp/aws&quot;] -->
<g id="node21" class="node">
<title>[root] provider[&quot;registry.terraform.io/hashicorp/aws&quot;]</title>
<polygon fill="none" stroke="black" points="356.5,-36 31.24,-18 356.5,0 681.76,-18 356.5,-36"/>
<text text-anchor="middle" x="356.5" y="-14.3" font-family="Times,serif" font-size="14.00">provider[&quot;registry.terraform.io/hashicorp/aws&quot;]</text>
</g>
<!-- [root] aws_vpc.main (expand)&#45;&gt;[root] provider[&quot;registry.terraform.io/hashicorp/aws&quot;] -->
<g id="edge27" class="edge">
<title>[root] aws_vpc.main (expand)&#45;&gt;[root] provider[&quot;registry.terraform.io/hashicorp/aws&quot;]</title>
<path fill="none" stroke="black" d="M544.2,-72.41C505.86,-61.5 455.78,-47.25 417,-36.22"/>
<polygon fill="black" stroke="black" points="417.47,-32.71 406.89,-33.34 415.55,-39.44 417.47,-32.71"/>
</g>
<!-- [root] local.project (expand) -->
<g id="node27" class="node">
<title>[root] local.project (expand)</title>
<ellipse fill="none" stroke="black" cx="964.5" cy="-18" rx="139.98" ry="18"/>
<text text-anchor="middle" x="964.5" y="-14.3" font-family="Times,serif" font-size="14.00">[root] local.project (expand)</text>
</g>
<!-- [root] aws_vpc.main (expand)&#45;&gt;[root] local.project (expand) -->
<g id="edge26" class="edge">
<title>[root] aws_vpc.main (expand)&#45;&gt;[root] local.project (expand)</title>
<path fill="none" stroke="black" d="M660.66,-77.75C720.07,-66.27 812.9,-48.31 880.33,-35.28"/>
<polygon fill="black" stroke="black" points="881.35,-38.64 890.51,-33.31 880.02,-31.77 881.35,-38.64"/>
</g>
<!-- [root] cloudflare_record.domain_cert (expand) -->
<g id="node15" class="node">
<title>[root] cloudflare_record.domain_cert (expand)</title>
<polygon fill="none" stroke="black" points="2195,-396 1962,-396 1962,-360 2195,-360 2195,-396"/>
<text text-anchor="middle" x="2078.5" y="-374.3" font-family="Times,serif" font-size="14.00">cloudflare_record.domain_cert</text>
</g>
<!-- [root] cloudflare_record.domain_cert (expand)&#45;&gt;[root] aws_acm_certificate.main (expand) -->
<g id="edge28" class="edge">
<title>[root] cloudflare_record.domain_cert (expand)&#45;&gt;[root] aws_acm_certificate.main (expand)</title>
<path fill="none" stroke="black" d="M1961.77,-362.54C1862.37,-350.22 1720.6,-332.66 1623.25,-320.6"/>
<polygon fill="black" stroke="black" points="1623.44,-317.09 1613.09,-319.34 1622.58,-324.04 1623.44,-317.09"/>
</g>
<!-- [root] data.cloudflare_zone.main (expand) -->
<g id="node19" class="node">
<title>[root] data.cloudflare_zone.main (expand)</title>
<polygon fill="none" stroke="black" points="2405,-324 2202,-324 2202,-288 2405,-288 2405,-324"/>
<text text-anchor="middle" x="2303.5" y="-302.3" font-family="Times,serif" font-size="14.00">data.cloudflare_zone.main</text>
</g>
<!-- [root] cloudflare_record.domain_cert (expand)&#45;&gt;[root] data.cloudflare_zone.main (expand) -->
<g id="edge29" class="edge">
<title>[root] cloudflare_record.domain_cert (expand)&#45;&gt;[root] data.cloudflare_zone.main (expand)</title>
<path fill="none" stroke="black" d="M2133.25,-359.97C2165.1,-350.06 2205.42,-337.51 2238.83,-327.12"/>
<polygon fill="black" stroke="black" points="2239.99,-330.42 2248.5,-324.11 2237.91,-323.74 2239.99,-330.42"/>
</g>
<!-- [root] cloudflare_record.main (expand) -->
<g id="node16" class="node">
<title>[root] cloudflare_record.main (expand)</title>
<polygon fill="none" stroke="black" points="2393.5,-396 2213.5,-396 2213.5,-360 2393.5,-360 2393.5,-396"/>
<text text-anchor="middle" x="2303.5" y="-374.3" font-family="Times,serif" font-size="14.00">cloudflare_record.main</text>
</g>
<!-- [root] cloudflare_record.main (expand)&#45;&gt;[root] data.cloudflare_zone.main (expand) -->
<g id="edge30" class="edge">
<title>[root] cloudflare_record.main (expand)&#45;&gt;[root] data.cloudflare_zone.main (expand)</title>
<path fill="none" stroke="black" d="M2303.5,-359.7C2303.5,-351.98 2303.5,-342.71 2303.5,-334.11"/>
<polygon fill="black" stroke="black" points="2307,-334.1 2303.5,-324.1 2300,-334.1 2307,-334.1"/>
</g>
<!-- [root] data.aws_ami.ubuntu (expand)&#45;&gt;[root] provider[&quot;registry.terraform.io/hashicorp/aws&quot;] -->
<g id="edge31" class="edge">
<title>[root] data.aws_ami.ubuntu (expand)&#45;&gt;[root] provider[&quot;registry.terraform.io/hashicorp/aws&quot;]</title>
<path fill="none" stroke="black" d="M150.69,-71.97C193.73,-60.89 249.56,-46.52 292.21,-35.54"/>
<polygon fill="black" stroke="black" points="293.12,-38.93 301.93,-33.04 291.37,-32.15 293.12,-38.93"/>
</g>
<!-- [root] data.aws_ec2_managed_prefix_list.cloudfront (expand)&#45;&gt;[root] provider[&quot;registry.terraform.io/hashicorp/aws&quot;] -->
<g id="edge32" class="edge">
<title>[root] data.aws_ec2_managed_prefix_list.cloudfront (expand)&#45;&gt;[root] provider[&quot;registry.terraform.io/hashicorp/aws&quot;]</title>
<path fill="none" stroke="black" d="M356.5,-71.7C356.5,-63.98 356.5,-54.71 356.5,-46.11"/>
<polygon fill="black" stroke="black" points="360,-46.1 356.5,-36.1 353,-46.1 360,-46.1"/>
</g>
<!-- [root] provider[&quot;registry.terraform.io/cloudflare/cloudflare&quot;] -->
<g id="node20" class="node">
<title>[root] provider[&quot;registry.terraform.io/cloudflare/cloudflare&quot;]</title>
<polygon fill="none" stroke="black" points="2643.5,-252 2277.85,-234 2643.5,-216 3009.15,-234 2643.5,-252"/>
<text text-anchor="middle" x="2643.5" y="-230.3" font-family="Times,serif" font-size="14.00">provider[&quot;registry.terraform.io/cloudflare/cloudflare&quot;]</text>
</g>
<!-- [root] data.cloudflare_zone.main (expand)&#45;&gt;[root] provider[&quot;registry.terraform.io/cloudflare/cloudflare&quot;] -->
<g id="edge33" class="edge">
<title>[root] data.cloudflare_zone.main (expand)&#45;&gt;[root] provider[&quot;registry.terraform.io/cloudflare/cloudflare&quot;]</title>
<path fill="none" stroke="black" d="M2386.24,-287.97C2441.29,-276.63 2513.09,-261.85 2566.85,-250.78"/>
<polygon fill="black" stroke="black" points="2567.58,-254.2 2576.66,-248.76 2566.16,-247.35 2567.58,-254.2"/>
</g>
<!-- [root] var.cloudflare_api_token -->
<g id="node23" class="node">
<title>[root] var.cloudflare_api_token</title>
<polygon fill="none" stroke="black" points="2731.5,-180 2549.5,-180 2549.5,-144 2737.5,-144 2737.5,-174 2731.5,-180"/>
<polyline fill="none" stroke="black" points="2731.5,-180 2731.5,-174 "/>
<polyline fill="none" stroke="black" points="2737.5,-174 2731.5,-174 "/>
<text text-anchor="middle" x="2643.5" y="-158.3" font-family="Times,serif" font-size="14.00">var.cloudflare_api_token</text>
</g>
<!-- [root] provider[&quot;registry.terraform.io/cloudflare/cloudflare&quot;]&#45;&gt;[root] var.cloudflare_api_token -->
<g id="edge37" class="edge">
<title>[root] provider[&quot;registry.terraform.io/cloudflare/cloudflare&quot;]&#45;&gt;[root] var.cloudflare_api_token</title>
<path fill="none" stroke="black" d="M2643.5,-215.7C2643.5,-207.98 2643.5,-198.71 2643.5,-190.11"/>
<polygon fill="black" stroke="black" points="2647,-190.1 2643.5,-180.1 2640,-190.1 2647,-190.1"/>
</g>
<!-- [root] local.origin_id (expand)&#45;&gt;[root] local.project (expand) -->
<g id="edge34" class="edge">
<title>[root] local.origin_id (expand)&#45;&gt;[root] local.project (expand)</title>
<path fill="none" stroke="black" d="M1011.49,-72.05C1003.99,-63.58 994.76,-53.17 986.48,-43.82"/>
<polygon fill="black" stroke="black" points="989.05,-41.44 979.8,-36.28 983.81,-46.08 989.05,-41.44"/>
</g>
<!-- [root] provider[&quot;registry.terraform.io/cloudflare/cloudflare&quot;] (close) -->
<g id="node28" class="node">
<title>[root] provider[&quot;registry.terraform.io/cloudflare/cloudflare&quot;] (close)</title>
<ellipse fill="none" stroke="black" cx="2191.5" cy="-450" rx="320.34" ry="18"/>
<text text-anchor="middle" x="2191.5" y="-446.3" font-family="Times,serif" font-size="14.00">[root] provider[&quot;registry.terraform.io/cloudflare/cloudflare&quot;] (close)</text>
</g>
<!-- [root] provider[&quot;registry.terraform.io/cloudflare/cloudflare&quot;] (close)&#45;&gt;[root] cloudflare_record.domain_cert (expand) -->
<g id="edge35" class="edge">
<title>[root] provider[&quot;registry.terraform.io/cloudflare/cloudflare&quot;] (close)&#45;&gt;[root] cloudflare_record.domain_cert (expand)</title>
<path fill="none" stroke="black" d="M2164.15,-432.05C2149.27,-422.84 2130.67,-411.32 2114.61,-401.37"/>
<polygon fill="black" stroke="black" points="2116.34,-398.32 2105.99,-396.03 2112.65,-404.27 2116.34,-398.32"/>
</g>
<!-- [root] provider[&quot;registry.terraform.io/cloudflare/cloudflare&quot;] (close)&#45;&gt;[root] cloudflare_record.main (expand) -->
<g id="edge36" class="edge">
<title>[root] provider[&quot;registry.terraform.io/cloudflare/cloudflare&quot;] (close)&#45;&gt;[root] cloudflare_record.main (expand)</title>
<path fill="none" stroke="black" d="M2218.61,-432.05C2233.36,-422.84 2251.79,-411.32 2267.71,-401.37"/>
<polygon fill="black" stroke="black" points="2269.62,-404.3 2276.25,-396.03 2265.91,-398.36 2269.62,-404.3"/>
</g>
<!-- [root] provider[&quot;registry.terraform.io/hashicorp/aws&quot;] (close) -->
<g id="node29" class="node">
<title>[root] provider[&quot;registry.terraform.io/hashicorp/aws&quot;] (close)</title>
<ellipse fill="none" stroke="black" cx="863.5" cy="-450" rx="291.65" ry="18"/>
<text text-anchor="middle" x="863.5" y="-446.3" font-family="Times,serif" font-size="14.00">[root] provider[&quot;registry.terraform.io/hashicorp/aws&quot;] (close)</text>
</g>
<!-- [root] provider[&quot;registry.terraform.io/hashicorp/aws&quot;] (close)&#45;&gt;[root] aws_cloudfront_distribution.app (expand) -->
<g id="edge38" class="edge">
<title>[root] provider[&quot;registry.terraform.io/hashicorp/aws&quot;] (close)&#45;&gt;[root] aws_cloudfront_distribution.app (expand)</title>
<path fill="none" stroke="black" d="M909.49,-432.05C936.02,-422.28 969.56,-409.92 997.6,-399.59"/>
<polygon fill="black" stroke="black" points="999.1,-402.77 1007.27,-396.03 996.68,-396.2 999.1,-402.77"/>
</g>
<!-- [root] provider[&quot;registry.terraform.io/hashicorp/aws&quot;] (close)&#45;&gt;[root] aws_lb_listener.app (expand) -->
<g id="edge39" class="edge">
<title>[root] provider[&quot;registry.terraform.io/hashicorp/aws&quot;] (close)&#45;&gt;[root] aws_lb_listener.app (expand)</title>
<path fill="none" stroke="black" d="M828.88,-432.05C809.53,-422.58 785.21,-410.68 764.52,-400.55"/>
<polygon fill="black" stroke="black" points="765.81,-397.28 755.29,-396.03 762.74,-403.57 765.81,-397.28"/>
</g>
<!-- [root] provider[&quot;registry.terraform.io/hashicorp/aws&quot;] (close)&#45;&gt;[root] aws_lb_target_group_attachment.app (expand) -->
<g id="edge40" class="edge">
<title>[root] provider[&quot;registry.terraform.io/hashicorp/aws&quot;] (close)&#45;&gt;[root] aws_lb_target_group_attachment.app (expand)</title>
<path fill="none" stroke="black" d="M775.13,-432.76C718.4,-422.34 644.51,-408.77 585.18,-397.86"/>
<polygon fill="black" stroke="black" points="585.5,-394.37 575.03,-396 584.24,-401.25 585.5,-394.37"/>
</g>
<!-- [root] provider[&quot;registry.terraform.io/hashicorp/aws&quot;] (close)&#45;&gt;[root] aws_route_table_association.main (expand) -->
<g id="edge41" class="edge">
<title>[root] provider[&quot;registry.terraform.io/hashicorp/aws&quot;] (close)&#45;&gt;[root] aws_route_table_association.main (expand)</title>
<path fill="none" stroke="black" d="M865.31,-431.87C867.87,-407.67 872.56,-363.21 875.61,-334.39"/>
<polygon fill="black" stroke="black" points="879.11,-334.5 876.68,-324.19 872.15,-333.77 879.11,-334.5"/>
</g>
<!-- [root] provider[&quot;registry.terraform.io/hashicorp/aws&quot;].us_east_1 (close) -->
<g id="node30" class="node">
<title>[root] provider[&quot;registry.terraform.io/hashicorp/aws&quot;].us_east_1 (close)</title>
<ellipse fill="none" stroke="black" cx="1513.5" cy="-450" rx="339.84" ry="18"/>
<text text-anchor="middle" x="1513.5" y="-446.3" font-family="Times,serif" font-size="14.00">[root] provider[&quot;registry.terraform.io/hashicorp/aws&quot;].us_east_1 (close)</text>
</g>
<!-- [root] provider[&quot;registry.terraform.io/hashicorp/aws&quot;].us_east_1 (close)&#45;&gt;[root] aws_acm_certificate.main (expand) -->
<g id="edge42" class="edge">
<title>[root] provider[&quot;registry.terraform.io/hashicorp/aws&quot;].us_east_1 (close)&#45;&gt;[root] aws_acm_certificate.main (expand)</title>
<path fill="none" stroke="black" d="M1513.5,-431.87C1513.5,-407.67 1513.5,-363.21 1513.5,-334.39"/>
<polygon fill="black" stroke="black" points="1517,-334.19 1513.5,-324.19 1510,-334.19 1517,-334.19"/>
</g>
<!-- [root] root -->
<g id="node31" class="node">
<title>[root] root</title>
<ellipse fill="none" stroke="black" cx="1513.5" cy="-522" rx="58.49" ry="18"/>
<text text-anchor="middle" x="1513.5" y="-518.3" font-family="Times,serif" font-size="14.00">[root] root</text>
</g>
<!-- [root] root&#45;&gt;[root] provider[&quot;registry.terraform.io/cloudflare/cloudflare&quot;] (close) -->
<g id="edge43" class="edge">
<title>[root] root&#45;&gt;[root] provider[&quot;registry.terraform.io/cloudflare/cloudflare&quot;] (close)</title>
<path fill="none" stroke="black" d="M1568.12,-515.36C1668.58,-504.99 1886.03,-482.54 2035.58,-467.1"/>
<polygon fill="black" stroke="black" points="2036.19,-470.55 2045.78,-466.05 2035.47,-463.59 2036.19,-470.55"/>
</g>
<!-- [root] root&#45;&gt;[root] provider[&quot;registry.terraform.io/hashicorp/aws&quot;] (close) -->
<g id="edge44" class="edge">
<title>[root] root&#45;&gt;[root] provider[&quot;registry.terraform.io/hashicorp/aws&quot;] (close)</title>
<path fill="none" stroke="black" d="M1459.2,-515.15C1361.76,-504.66 1154.14,-482.3 1011.68,-466.96"/>
<polygon fill="black" stroke="black" points="1011.86,-463.46 1001.54,-465.87 1011.11,-470.42 1011.86,-463.46"/>
</g>
<!-- [root] root&#45;&gt;[root] provider[&quot;registry.terraform.io/hashicorp/aws&quot;].us_east_1 (close) -->
<g id="edge45" class="edge">
<title>[root] root&#45;&gt;[root] provider[&quot;registry.terraform.io/hashicorp/aws&quot;].us_east_1 (close)</title>
<path fill="none" stroke="black" d="M1513.5,-503.7C1513.5,-495.98 1513.5,-486.71 1513.5,-478.11"/>
<polygon fill="black" stroke="black" points="1517,-478.1 1513.5,-468.1 1510,-478.1 1517,-478.1"/>
</g>
</g>
</svg>
